<?xml version="1.0" encoding="UTF-8" standalone="no"?>
<!-- Created with Inkscape (http://www.inkscape.org/) -->

<svg
   xmlns:dc="http://purl.org/dc/elements/1.1/"
   xmlns:cc="http://creativecommons.org/ns#"
   xmlns:rdf="http://www.w3.org/1999/02/22-rdf-syntax-ns#"
   xmlns:svg="http://www.w3.org/2000/svg"
   xmlns="http://www.w3.org/2000/svg"
   xmlns:xlink="http://www.w3.org/1999/xlink"
   xmlns:sodipodi="http://sodipodi.sourceforge.net/DTD/sodipodi-0.dtd"
   xmlns:inkscape="http://www.inkscape.org/namespaces/inkscape"
   width="32"
   height="27.013147"
   id="svg4048"
   version="1.1"
   inkscape:version="0.47 r22583"
   sodipodi:docname="Neues Dokument 3">
  <defs
     id="defs4050">
    <linearGradient
       inkscape:collect="always"
       id="linearGradient4593">
      <stop
         style="stop-color:#ff7513;stop-opacity:1;"
         offset="0"
         id="stop4595" />
      <stop
         style="stop-color:#ffffff;stop-opacity:1"
         offset="1"
         id="stop4597" />
    </linearGradient>
    <inkscape:perspective
       sodipodi:type="inkscape:persp3d"
       inkscape:vp_x="0 : 526.18109 : 1"
       inkscape:vp_y="0 : 1000 : 0"
       inkscape:vp_z="744.09448 : 526.18109 : 1"
       inkscape:persp3d-origin="372.04724 : 350.78739 : 1"
       id="perspective4056" />
    <inkscape:perspective
       id="perspective4036"
       inkscape:persp3d-origin="0.5 : 0.33333333 : 1"
       inkscape:vp_z="1 : 0.5 : 1"
       inkscape:vp_y="0 : 1000 : 0"
       inkscape:vp_x="0 : 0.5 : 1"
       sodipodi:type="inkscape:persp3d" />
    <linearGradient
       inkscape:collect="always"
       xlink:href="#linearGradient4593"
       id="linearGradient4599"
       x1="13.788582"
       y1="10.042584"
       x2="64.346718"
       y2="-42.636871"
       gradientUnits="userSpaceOnUse" />
  </defs>
  <sodipodi:namedview
     id="base"
     pagecolor="#ffffff"
     bordercolor="#666666"
     borderopacity="1.0"
     inkscape:pageopacity="0.0"
     inkscape:pageshadow="2"
     inkscape:zoom="1"
     inkscape:cx="-1.0248197"
     inkscape:cy="13.506585"
     inkscape:document-units="px"
     inkscape:current-layer="layer1"
     showgrid="false"
     inkscape:window-width="1280"
     inkscape:window-height="749"
     inkscape:window-x="0"
     inkscape:window-y="24"
     inkscape:window-maximized="1" />
  <metadata
     id="metadata4053">
    <rdf:RDF>
      <cc:Work
         rdf:about="">
        <dc:format>image/svg+xml</dc:format>
        <dc:type
           rdf:resource="http://purl.org/dc/dcmitype/StillImage" />
        <dc:title></dc:title>
      </cc:Work>
    </rdf:RDF>
  </metadata>
  <g
     inkscape:label="Ebene 1"
     inkscape:groupmode="layer"
     id="layer1"
     transform="translate(-334,-518.85562)">
    <rect
       style="fill:#333333;fill-opacity:1;stroke:none"
       id="rect4026"
       width="31.479361"
       height="8.85357"
       x="334"
       y="537.0152"
       rx="1.96746"
       ry="1.96746" />
    <path
       style="color:#000000;fill:url(#linearGradient4599);fill-opacity:1;fill-rule:nonzero;stroke:none;stroke-width:15;marker:none;visibility:visible;display:inline;overflow:visible"
       d="M 16.46875 0 L 16.46875 3.09375 A 12.415129 12.415129 0 0 1 28.90625 15.53125 L 32 15.53125 A 15.518913 15.518913 0 0 0 16.46875 0 z M 16.46875 5.21875 L 16.46875 8.25 A 7.271719 7.271719 0 0 1 23.75 15.53125 L 26.78125 15.53125 A 10.286822 10.286822 0 0 0 16.46875 5.21875 z M 8.625 7.40625 C 7.84379 7.42342 5.04003 7.55156 3.28125 7.71875 C 3.26775 7.72075 3.2632 7.746 3.25 7.75 C 3.21 7.7519 3.1519 7.74 3.0625 7.75 C 2.94774 7.7628 2.82067 7.78425 2.6875 7.84375 C 2.5957 7.88495 2.60805 7.89105 2.59375 7.90625 C 2.57945 7.92145 2.5746 7.9224 2.5625 7.9375 C 2.5383 7.96763 2.50025 8.0183 2.46875 8.0625 C 2.40586 8.15086 2.3423 8.2638 2.25 8.40625 C 2.06553 8.69117 1.83692 9.08603 1.625 9.46875 C 1.40405 9.86775 1.27415 10.05842 1.21875 10.21875 C 1.16335 10.37908 1.1855 10.50925 1.1875 10.59375 C 1.1921 10.79988 1.22525 10.7165 1.15625 10.84375 C 1.06578 11.01062 0.96875 11.25 0.96875 11.25 C 0.96485 11.2599 0.9405 11.27085 0.9375 11.28125 C 0.9325 11.29675 0.9395 11.32405 0.9375 11.34375 C 0.8565 11.53876 0.87 11.71855 0.875 11.90625 C 0.8787 12.04875 0.89555 12.1587 0.90625 12.25 C 0.90425 12.2562 0.877 12.27425 0.875 12.28125 C 0.82273 12.48566 0.7748 12.55344 0.6875 12.6875 C 0.60024 12.82155 0.49685 13.04892 0.53125 13.3125 C 0.53595 13.3485 0.5524 13.38275 0.5625 13.40625 C 0.5645 13.49225 0.57535 13.57842 0.59375 13.6875 C 0.62224 13.85623 0.64325 14.03535 0.71875 14.21875 C 0.79428 14.40215 0.89155 14.58907 1.0625 14.71875 C 1.19751 14.82158 1.40335 14.87945 1.59375 14.84375 C 1.67025 15.89363 2.60029 16.7118 3.6875 16.6875 C 4.53687 16.66849 5.24028 16.13879 5.53125 15.40625 L 16.25 15.53125 C 16.2831 15.53165 16.31285 15.5119 16.34375 15.5 C 16.68104 16.18547 17.39349 16.6435 18.21875 16.625 C 19.15087 16.60414 19.93345 15.96937 20.15625 15.125 C 20.29633 15.1468 20.45961 15.1742 20.65625 15.1875 C 20.89983 15.2039 21.1521 15.23345 21.375 15.15625 C 21.44596 15.13181 21.50285 15.0695 21.53125 15 C 21.79248 14.36577 21.8155 13.79306 21.8125 13.5625 C 21.8185 13.5463 21.8095 13.517 21.8125 13.5 C 21.8125 13.5 21.85175 13.32905 21.84375 13.125 C 21.83965 13.02298 21.82615 12.92772 21.78125 12.8125 C 21.73644 12.69728 21.63347 12.5461 21.46875 12.5 C 21.44395 12.493 21.42885 12.504 21.40625 12.5 C 21.34096 12.19573 21.2412 11.9365 21.1875 11.8125 C 21.1808 11.76813 21.18075 11.7231 21.15625 11.6875 C 21.14415 11.6699 21.10975 11.67035 21.09375 11.65625 C 20.1958 10.86458 19.05234 10.56735 18.09375 10.1875 C 18.06325 10.1761 18.0327 10.18725 18 10.1875 C 16.52117 9.29974 14.95071 8.56752 13.28125 7.9375 C 13.25645 7.9087 13.2221 7.8906 13.1875 7.875 C 12.61877 7.62204 11.66177 7.52985 10.75 7.46875 C 9.83823 7.40725 8.99466 7.4072 8.75 7.40625 C 8.71363 7.40625 8.6764 7.40525 8.625 7.40625 z "
       transform="translate(334,518.85562)"
       id="path3740" />
    <path
       style="font-size:53.81786728px;font-style:normal;font-variant:normal;font-weight:normal;font-stretch:normal;text-align:start;line-height:125%;writing-mode:lr-tb;text-anchor:start;fill:#ffffff;fill-opacity:1;stroke:none;font-family:Liberation Sans;-inkscape-font-specification:Liberation Sans"
       d="M 10.0625 19.0625 L 10.0625 25.25 L 10.8125 25.25 L 10.8125 22.59375 C 10.812499 22.385981 10.819593 22.19747 10.875 22.03125 C 10.930404 21.865036 11.025268 21.710106 11.125 21.59375 C 11.227499 21.477402 11.327463 21.40747 11.46875 21.34375 C 11.612803 21.280037 11.791449 21.218754 11.96875 21.21875 C 12.162668 21.218754 12.315604 21.262639 12.4375 21.3125 C 12.55939 21.359599 12.65226 21.434294 12.71875 21.53125 C 12.785234 21.625443 12.821584 21.730948 12.84375 21.875 C 12.868679 22.019058 12.906247 22.183853 12.90625 22.375 L 12.90625 25.25 L 13.65625 25.25 L 13.65625 22.25 C 13.656246 22.017299 13.6353 21.787674 13.59375 21.59375 C 13.554962 21.399834 13.483037 21.232268 13.375 21.09375 C 13.269725 20.95247 13.123106 20.858822 12.9375 20.78125 C 12.754658 20.703686 12.506857 20.656255 12.21875 20.65625 C 12.046989 20.656255 11.888512 20.685511 11.75 20.71875 C 11.611483 20.749228 11.49135 20.774497 11.375 20.84375 C 11.258646 20.913012 11.159458 21.016963 11.0625 21.125 C 10.965538 21.230275 10.864357 21.347638 10.78125 21.5 C 10.784019 21.480612 10.778478 21.458889 10.78125 21.40625 C 10.784019 21.350848 10.778478 21.265072 10.78125 21.1875 C 10.786789 21.109936 10.778478 21.028924 10.78125 20.9375 C 10.784019 20.846085 10.812499 20.747674 10.8125 20.65625 L 10.8125 19.0625 L 10.0625 19.0625 z M 23.75 19.0625 L 23.75 25.25 L 24.5 25.25 L 24.5 23.625 L 25.0625 23.1875 L 26.59375 25.25 L 27.46875 25.25 L 25.53125 22.65625 L 27.375 20.75 L 26.5 20.75 L 24.5 22.90625 L 24.5 19.0625 L 23.75 19.0625 z M 3.75 19.71875 L 3.53125 20.75 L 2.96875 20.75 L 2.96875 21.28125 L 3.5 21.28125 L 3.5 24.28125 C 3.4999994 24.959971 3.8078665 25.3125 4.40625 25.3125 C 4.5613845 25.3125 4.696146 25.300642 4.8125 25.28125 C 4.9316204 25.264628 5.0426659 25.217973 5.15625 25.1875 L 5.15625 24.65625 C 5.0759094 24.672872 5.0067551 24.676419 4.9375 24.6875 C 4.871011 24.698582 4.7907756 24.718751 4.71875 24.71875 C 4.5442201 24.718751 4.415776 24.64838 4.34375 24.5625 C 4.2744913 24.473851 4.2499986 24.341083 4.25 24.125 L 4.25 21.28125 L 5.0625 21.28125 L 5.0625 20.75 L 4.25 20.75 L 4.25 19.71875 L 3.75 19.71875 z M 7.5 20.65625 C 7.3393211 20.656255 7.1891545 20.685511 7.03125 20.71875 C 6.8733418 20.749228 6.7065535 20.771727 6.5625 20.84375 C 6.421214 20.913012 6.2781416 21.037132 6.15625 21.15625 C 6.0343564 21.272606 5.9351688 21.387976 5.84375 21.5625 C 5.7551002 21.734261 5.7061147 21.954799 5.65625 22.1875 C 5.6063844 22.417437 5.5624996 22.666791 5.5625 22.96875 C 5.5624996 23.301187 5.6182424 23.620912 5.6875 23.90625 C 5.7567567 24.188821 5.8476334 24.445709 6 24.65625 C 6.1551353 24.864022 6.3471931 25.005878 6.59375 25.125 C 6.8403041 25.244122 7.1481713 25.3125 7.5 25.3125 C 7.7687155 25.3125 8.0137458 25.265068 8.21875 25.1875 C 8.4237482 25.107162 8.6087119 25.005204 8.75 24.875 C 8.8940514 24.744797 8.9793875 24.609259 9.0625 24.4375 C 9.1456047 24.265743 9.2250634 24.091861 9.25 23.90625 L 8.46875 23.84375 C 8.4271924 24.142942 8.3363157 24.355946 8.15625 24.5 C 7.9789487 24.644056 7.7659452 24.718751 7.5 24.71875 C 7.2866856 24.718751 7.0843235 24.67963 6.9375 24.59375 C 6.7934434 24.507872 6.6823978 24.405137 6.59375 24.25 C 6.5050994 24.092095 6.4450328 23.903584 6.40625 23.6875 C 6.3702351 23.471419 6.3437489 23.226389 6.34375 22.96875 C 6.3437489 22.677872 6.3702351 22.434835 6.40625 22.21875 C 6.4450328 22.002671 6.5050994 21.797538 6.59375 21.65625 C 6.6823978 21.512199 6.7962136 21.413011 6.9375 21.34375 C 7.0815532 21.271726 7.2554357 21.250004 7.46875 21.25 C 7.7596278 21.250004 7.9983407 21.321929 8.15625 21.46875 C 8.3141534 21.615579 8.3987127 21.813177 8.4375 22.0625 L 9.21875 22 C 9.1827323 21.811624 9.1198954 21.632201 9.03125 21.46875 C 8.942597 21.305307 8.8315514 21.150377 8.6875 21.03125 C 8.5462119 20.909362 8.3529374 20.819262 8.15625 20.75 C 7.9595567 20.680747 7.7520938 20.656255 7.5 20.65625 z M 16.5625 20.65625 C 16.285469 20.656255 16.025034 20.698146 15.78125 20.78125 C 15.537463 20.861593 15.339088 21.004665 15.15625 21.1875 C 14.97341 21.370343 14.82402 21.581353 14.71875 21.875 C 14.613479 22.165883 14.5625 22.547669 14.5625 22.96875 C 14.5625 23.749973 14.747463 24.3226 15.09375 24.71875 C 15.442805 25.114902 15.928879 25.3125 16.59375 25.3125 C 16.892939 25.3125 17.164455 25.282467 17.375 25.21875 C 17.588309 25.152263 17.764962 25.068481 17.90625 24.96875 C 18.047531 24.86625 18.166887 24.749664 18.25 24.625 C 18.335875 24.497567 18.390401 24.374664 18.4375 24.25 L 17.78125 24.0625 C 17.711989 24.261962 17.571687 24.432297 17.375 24.5625 C 17.181077 24.692704 16.917871 24.75 16.59375 24.75 C 16.372125 24.75 16.189155 24.702569 16.03125 24.625 C 15.873342 24.544662 15.758749 24.453786 15.65625 24.3125 C 15.556518 24.168446 15.456114 23.977942 15.40625 23.78125 C 15.359154 23.581791 15.343749 23.391726 15.34375 23.15625 L 18.5625 23.15625 L 18.5625 23.03125 C 18.562496 22.693277 18.535233 22.384633 18.46875 22.09375 C 18.405029 21.802873 18.280132 21.557066 18.125 21.34375 C 17.97263 21.127672 17.786113 20.965647 17.53125 20.84375 C 17.279151 20.721862 16.939257 20.656255 16.5625 20.65625 z M 21.21875 20.65625 C 21.058071 20.656255 20.907905 20.685511 20.75 20.71875 C 20.592092 20.749228 20.425304 20.771727 20.28125 20.84375 C 20.139964 20.913012 20.028142 21.037132 19.90625 21.15625 C 19.784356 21.272606 19.685169 21.387976 19.59375 21.5625 C 19.5051 21.734261 19.424865 21.954799 19.375 22.1875 C 19.325134 22.417437 19.3125 22.666791 19.3125 22.96875 C 19.3125 23.301187 19.336992 23.620912 19.40625 23.90625 C 19.475507 24.188821 19.597633 24.445709 19.75 24.65625 C 19.905135 24.864022 20.097193 25.005878 20.34375 25.125 C 20.590304 25.244122 20.898171 25.3125 21.25 25.3125 C 21.518716 25.3125 21.732496 25.265068 21.9375 25.1875 C 22.142498 25.107162 22.327462 25.005204 22.46875 24.875 C 22.612801 24.744797 22.729388 24.609259 22.8125 24.4375 C 22.895605 24.265743 22.943813 24.091861 22.96875 23.90625 L 22.21875 23.84375 C 22.177192 24.142942 22.055066 24.355946 21.875 24.5 C 21.697699 24.644056 21.484695 24.718751 21.21875 24.71875 C 21.005436 24.718751 20.834323 24.67963 20.6875 24.59375 C 20.543443 24.507872 20.401148 24.405137 20.3125 24.25 C 20.223849 24.092095 20.163783 23.903584 20.125 23.6875 C 20.088985 23.471419 20.093749 23.226389 20.09375 22.96875 C 20.093749 22.677872 20.088985 22.434835 20.125 22.21875 C 20.163783 22.002671 20.223849 21.797538 20.3125 21.65625 C 20.401148 21.512199 20.514964 21.413011 20.65625 21.34375 C 20.800303 21.271726 21.005436 21.250004 21.21875 21.25 C 21.509628 21.250004 21.717091 21.321929 21.875 21.46875 C 22.032903 21.615579 22.148713 21.813177 22.1875 22.0625 L 22.9375 22 C 22.901482 21.811624 22.838645 21.632201 22.75 21.46875 C 22.661347 21.305307 22.550301 21.150377 22.40625 21.03125 C 22.264962 20.909362 22.102937 20.819262 21.90625 20.75 C 21.709557 20.680747 21.470844 20.656255 21.21875 20.65625 z M 16.5625 21.21875 C 16.936486 21.218754 17.206786 21.312401 17.40625 21.53125 C 17.605707 21.747336 17.739692 22.088784 17.78125 22.5625 L 15.34375 22.5625 C 15.35483 22.291015 15.41966 22.080781 15.5 21.90625 C 15.580337 21.728955 15.664896 21.571254 15.78125 21.46875 C 15.8976 21.366253 16.020504 21.320038 16.15625 21.28125 C 16.294762 21.2397 16.437835 21.218754 16.5625 21.21875 z "
       transform="translate(334,518.85562)"
       id="flowRoot4018" />
  </g>
</svg>
